<svg xmlns="http://www.w3.org/2000/svg" xmlns:v="https://svgstorm.com"
viewBox = "0 0 365 410"
width="365"
height="410">
<g fill="None" fill-opacity="0.0" stroke="#000000" stroke-opacity="0.00" stroke-width="0.3"><path d="
M 0.00 410.00 
L 365.00 410.00
L 365.00 0.00
L 0.00 0.00
L 0.00 410.00
M 264.00 89.00 
C 279.31 88.71 282.25 107.84 280.00 119.00 C 277.75 130.16 274.71 146.00 262.78 149.78 C 250.84 153.55 249.62 168.21 242.25 177.25 C 234.87 186.28 228.37 196.04 218.70 201.70 C 209.02 207.36 197.09 210.88 185.78 212.78 C 174.47 214.68 160.14 209.65 149.93 205.07 C 139.71 200.50 130.99 191.66 123.90 183.10 C 116.81 174.54 110.07 163.47 108.00 153.00
C 95.07 152.60 86.35 138.71 83.81 128.75 C 81.26 118.79 76.54 97.73 90.23 91.23 C 103.92 84.73 97.78 69.33 102.40 57.25 C 107.01 45.17 110.08 35.54 119.75 24.75 C 129.43 13.97 143.36 10.46 156.23 7.79 C 169.10 5.11 189.22 4.24 203.00 7.00 C 216.78 9.76 225.98 12.17 236.03 19.97 C 246.09 27.76 252.60 39.98 256.59 50.75 C 260.58 61.53 262.57 76.78 264.00 89.00
M 112.00 190.00 
C 109.92 206.16 106.35 221.14 104.00 237.00
C 116.21 234.07 126.09 231.38 138.00 229.00
C 135.91 285.71 137.73 341.41 137.00 398.00
C 119.49 396.63 107.60 386.68 94.30 378.70 C 81.01 370.71 55.10 379.32 46.03 361.97 C 36.97 344.61 42.30 330.81 43.93 313.92 C 45.57 297.02 49.59 284.37 53.93 268.92 C 58.28 253.46 66.75 239.27 74.90 225.90 C 83.05 212.53 98.70 196.50 112.00 190.00
M 225.00 398.00 
C 225.00 341.67 225.00 285.33 225.00 229.00
C 235.92 231.77 247.12 234.10 258.00 237.00
C 255.19 220.53 251.75 205.91 250.00 190.00
C 263.28 196.22 275.95 210.85 284.32 222.68 C 292.69 234.50 298.91 245.33 303.26 256.75 C 307.61 268.17 310.31 277.94 313.80 291.25 C 317.29 304.55 316.90 317.14 319.80 331.25 C 322.70 345.36 319.11 366.64 304.77 372.77 C 290.44 378.90 275.79 369.71 263.92 380.92 C 252.04 392.13 240.46 393.30 225.00 398.00
M 204.00 225.00 
C 204.00 283.00 204.00 341.00 204.00 399.00
C 200.33 399.79 197.73 399.21 194.00 400.00
C 194.00 341.00 194.00 282.00 194.00 223.00
C 197.93 222.84 200.35 223.90 204.00 225.00
M 170.00 402.00 
C 156.58 403.73 158.71 392.17 159.00 382.00 C 159.29 371.83 158.70 360.29 159.00 350.00 C 159.30 339.71 158.47 329.28 159.00 319.00 C 159.53 308.72 157.94 297.13 159.00 287.00 C 160.06 276.87 156.61 265.69 159.00 256.00 C 161.39 246.31 152.88 233.36 161.08 226.08 C 169.29 218.81 171.60 235.04 170.00 244.00 C 168.40 252.96 170.74 266.21 170.00 276.00 C 169.26 285.79 170.33 296.80 170.00 307.00 C 169.67 317.20 170.16 328.63 170.00 339.00 C 169.84 349.37 170.08 359.54 170.00 370.00 C 169.92 380.46 170.06 391.49 170.00 402.00 Z"/>
</g>
<g fill="None" fill-opacity="0.0" stroke="#000000" stroke-opacity="0.99" stroke-width="0.3"><path d="
M 264.00 89.00 
C 262.57 76.78 260.58 61.53 256.59 50.75 C 252.60 39.98 246.09 27.76 236.03 19.97 C 225.98 12.17 216.78 9.76 203.00 7.00 C 189.22 4.24 169.10 5.11 156.23 7.79 C 143.36 10.46 129.43 13.97 119.75 24.75 C 110.08 35.54 107.01 45.17 102.40 57.25 C 97.78 69.33 103.92 84.73 90.23 91.23 C 76.54 97.73 81.26 118.79 83.81 128.75 C 86.35 138.71 95.07 152.60 108.00 153.00
C 110.07 163.47 116.81 174.54 123.90 183.10 C 130.99 191.66 139.71 200.50 149.93 205.07 C 160.14 209.65 174.47 214.68 185.78 212.78 C 197.09 210.88 209.02 207.36 218.70 201.70 C 228.37 196.04 234.87 186.28 242.25 177.25 C 249.62 168.21 250.84 153.55 262.78 149.78 C 274.71 146.00 277.75 130.16 280.00 119.00 C 282.25 107.84 279.31 88.71 264.00 89.00
M 198.00 77.00 
C 206.13 94.86 226.31 102.39 243.00 107.00
C 239.47 139.04 228.78 180.01 189.92 187.93 C 151.06 195.86 122.44 152.29 120.00 119.00
C 129.19 117.08 139.91 116.11 149.07 112.07 C 158.24 108.03 165.97 102.00 174.70 96.70 C 183.42 91.39 189.09 80.57 198.00 77.00 Z"/>
</g>
<g fill="None" fill-opacity="0.0" stroke="#000000" stroke-opacity="0.01" stroke-width="0.3"><path d="
M 198.00 77.00 
C 189.09 80.57 183.42 91.39 174.70 96.70 C 165.97 102.00 158.24 108.03 149.07 112.07 C 139.91 116.11 129.19 117.08 120.00 119.00
C 122.44 152.29 151.06 195.86 189.92 187.93 C 228.78 180.01 239.47 139.04 243.00 107.00
C 226.31 102.39 206.13 94.86 198.00 77.00 Z"/>
</g>
<g fill="None" fill-opacity="0.0" stroke="#000000" stroke-opacity="0.99" stroke-width="0.3"><path d="
M 112.00 190.00 
C 98.70 196.50 83.05 212.53 74.90 225.90 C 66.75 239.27 58.28 253.46 53.93 268.92 C 49.59 284.37 45.57 297.02 43.93 313.92 C 42.30 330.81 36.97 344.61 46.03 361.97 C 55.10 379.32 81.01 370.71 94.30 378.70 C 107.60 386.68 119.49 396.63 137.00 398.00
C 137.73 341.41 135.91 285.71 138.00 229.00
C 126.09 231.38 116.21 234.07 104.00 237.00
C 106.35 221.14 109.92 206.16 112.00 190.00 Z"/>
</g>
<g fill="None" fill-opacity="0.0" stroke="#000000" stroke-opacity="0.99" stroke-width="0.3"><path d="
M 225.00 398.00 
C 240.46 393.30 252.04 392.13 263.92 380.92 C 275.79 369.71 290.44 378.90 304.77 372.77 C 319.11 366.64 322.70 345.36 319.80 331.25 C 316.90 317.14 317.29 304.55 313.80 291.25 C 310.31 277.94 307.61 268.17 303.26 256.75 C 298.91 245.33 292.69 234.50 284.32 222.68 C 275.95 210.85 263.28 196.22 250.00 190.00
C 251.75 205.91 255.19 220.53 258.00 237.00
C 247.12 234.10 235.92 231.77 225.00 229.00
C 225.00 285.33 225.00 341.67 225.00 398.00 Z"/>
</g>
<g fill="None" fill-opacity="0.0" stroke="#000000" stroke-opacity="1.00" stroke-width="0.3"><path d="
M 204.00 225.00 
C 200.35 223.90 197.93 222.84 194.00 223.00
C 194.00 282.00 194.00 341.00 194.00 400.00
C 197.73 399.21 200.33 399.79 204.00 399.00
C 204.00 341.00 204.00 283.00 204.00 225.00 Z"/>
</g>
<g fill="None" fill-opacity="0.0" stroke="#000000" stroke-opacity="0.99" stroke-width="0.3"><path d="
M 170.00 402.00 
C 170.06 391.49 169.92 380.46 170.00 370.00 C 170.08 359.54 169.84 349.37 170.00 339.00 C 170.16 328.63 169.67 317.20 170.00 307.00 C 170.33 296.80 169.26 285.79 170.00 276.00 C 170.74 266.21 168.40 252.96 170.00 244.00 C 171.60 235.04 169.29 218.81 161.08 226.08 C 152.88 233.36 161.39 246.31 159.00 256.00 C 156.61 265.69 160.06 276.87 159.00 287.00 C 157.94 297.13 159.53 308.72 159.00 319.00 C 158.47 329.28 159.30 339.71 159.00 350.00 C 158.70 360.29 159.29 371.83 159.00 382.00 C 158.71 392.17 156.58 403.73 170.00 402.00 Z"/>
</g>
<g fill="#000000" fill-opacity="0.00" stroke="None">
<path d="
M 0.00 410.00 
L 365.00 410.00
L 365.00 0.00
L 0.00 0.00
L 0.00 410.00
M 264.00 89.00 
C 279.31 88.71 282.25 107.84 280.00 119.00 C 277.75 130.16 274.71 146.00 262.78 149.78 C 250.84 153.55 249.62 168.21 242.25 177.25 C 234.87 186.28 228.37 196.04 218.70 201.70 C 209.02 207.36 197.09 210.88 185.78 212.78 C 174.47 214.68 160.14 209.65 149.93 205.07 C 139.71 200.50 130.99 191.66 123.90 183.10 C 116.81 174.54 110.07 163.47 108.00 153.00
C 95.07 152.60 86.35 138.71 83.81 128.75 C 81.26 118.79 76.54 97.73 90.23 91.23 C 103.92 84.73 97.78 69.33 102.40 57.25 C 107.01 45.17 110.08 35.54 119.75 24.75 C 129.43 13.97 143.36 10.46 156.23 7.79 C 169.10 5.11 189.22 4.24 203.00 7.00 C 216.78 9.76 225.98 12.17 236.03 19.97 C 246.09 27.76 252.60 39.98 256.59 50.75 C 260.58 61.53 262.57 76.78 264.00 89.00
M 112.00 190.00 
C 109.92 206.16 106.35 221.14 104.00 237.00
C 116.21 234.07 126.09 231.38 138.00 229.00
C 135.91 285.71 137.73 341.41 137.00 398.00
C 119.49 396.63 107.60 386.68 94.30 378.70 C 81.01 370.71 55.10 379.32 46.03 361.97 C 36.97 344.61 42.30 330.81 43.93 313.92 C 45.57 297.02 49.59 284.37 53.93 268.92 C 58.28 253.46 66.75 239.27 74.90 225.90 C 83.05 212.53 98.70 196.50 112.00 190.00
M 225.00 398.00 
C 225.00 341.67 225.00 285.33 225.00 229.00
C 235.92 231.77 247.12 234.10 258.00 237.00
C 255.19 220.53 251.75 205.91 250.00 190.00
C 263.28 196.22 275.95 210.85 284.32 222.68 C 292.69 234.50 298.91 245.33 303.26 256.75 C 307.61 268.17 310.31 277.94 313.80 291.25 C 317.29 304.55 316.90 317.14 319.80 331.25 C 322.70 345.36 319.11 366.64 304.77 372.77 C 290.44 378.90 275.79 369.71 263.92 380.92 C 252.04 392.13 240.46 393.30 225.00 398.00
M 204.00 225.00 
C 204.00 283.00 204.00 341.00 204.00 399.00
C 200.33 399.79 197.73 399.21 194.00 400.00
C 194.00 341.00 194.00 282.00 194.00 223.00
C 197.93 222.84 200.35 223.90 204.00 225.00
M 170.00 402.00 
C 156.58 403.73 158.71 392.17 159.00 382.00 C 159.29 371.83 158.70 360.29 159.00 350.00 C 159.30 339.71 158.47 329.28 159.00 319.00 C 159.53 308.72 157.94 297.13 159.00 287.00 C 160.06 276.87 156.61 265.69 159.00 256.00 C 161.39 246.31 152.88 233.36 161.08 226.08 C 169.29 218.81 171.60 235.04 170.00 244.00 C 168.40 252.96 170.74 266.21 170.00 276.00 C 169.26 285.79 170.33 296.80 170.00 307.00 C 169.67 317.20 170.16 328.63 170.00 339.00 C 169.84 349.37 170.08 359.54 170.00 370.00 C 169.92 380.46 170.06 391.49 170.00 402.00 Z"/>
</g>
<g fill="#000000" fill-opacity="0.99" stroke="None">
<path d="
M 264.00 89.00 
C 262.57 76.78 260.58 61.53 256.59 50.75 C 252.60 39.98 246.09 27.76 236.03 19.97 C 225.98 12.17 216.78 9.76 203.00 7.00 C 189.22 4.24 169.10 5.11 156.23 7.79 C 143.36 10.46 129.43 13.97 119.75 24.75 C 110.08 35.54 107.01 45.17 102.40 57.25 C 97.78 69.33 103.92 84.73 90.23 91.23 C 76.54 97.73 81.26 118.79 83.81 128.75 C 86.35 138.71 95.07 152.60 108.00 153.00
C 110.07 163.47 116.81 174.54 123.90 183.10 C 130.99 191.66 139.71 200.50 149.93 205.07 C 160.14 209.65 174.47 214.68 185.78 212.78 C 197.09 210.88 209.02 207.36 218.70 201.70 C 228.37 196.04 234.87 186.28 242.25 177.25 C 249.62 168.21 250.84 153.55 262.78 149.78 C 274.71 146.00 277.75 130.16 280.00 119.00 C 282.25 107.84 279.31 88.71 264.00 89.00
M 198.00 77.00 
C 206.13 94.86 226.31 102.39 243.00 107.00
C 239.47 139.04 228.78 180.01 189.92 187.93 C 151.06 195.86 122.44 152.29 120.00 119.00
C 129.19 117.08 139.91 116.11 149.07 112.07 C 158.24 108.03 165.97 102.00 174.70 96.70 C 183.42 91.39 189.09 80.57 198.00 77.00 Z"/>
</g>
<g fill="#000000" fill-opacity="0.01" stroke="None">
<path d="
M 198.00 77.00 
C 189.09 80.57 183.42 91.39 174.70 96.70 C 165.97 102.00 158.24 108.03 149.07 112.07 C 139.91 116.11 129.19 117.08 120.00 119.00
C 122.44 152.29 151.06 195.86 189.92 187.93 C 228.78 180.01 239.47 139.04 243.00 107.00
C 226.31 102.39 206.13 94.86 198.00 77.00 Z"/>
</g>
<g fill="#000000" fill-opacity="0.99" stroke="None">
<path d="
M 112.00 190.00 
C 98.70 196.50 83.05 212.53 74.90 225.90 C 66.75 239.27 58.28 253.46 53.93 268.92 C 49.59 284.37 45.57 297.02 43.93 313.92 C 42.30 330.81 36.97 344.61 46.03 361.97 C 55.10 379.32 81.01 370.71 94.30 378.70 C 107.60 386.68 119.49 396.63 137.00 398.00
C 137.73 341.41 135.91 285.71 138.00 229.00
C 126.09 231.38 116.21 234.07 104.00 237.00
C 106.35 221.14 109.92 206.16 112.00 190.00 Z"/>
</g>
<g fill="#000000" fill-opacity="0.99" stroke="None">
<path d="
M 225.00 398.00 
C 240.46 393.30 252.04 392.13 263.92 380.92 C 275.79 369.71 290.44 378.90 304.77 372.77 C 319.11 366.64 322.70 345.36 319.80 331.25 C 316.90 317.14 317.29 304.55 313.80 291.25 C 310.31 277.94 307.61 268.17 303.26 256.75 C 298.91 245.33 292.69 234.50 284.32 222.68 C 275.95 210.85 263.28 196.22 250.00 190.00
C 251.75 205.91 255.19 220.53 258.00 237.00
C 247.12 234.10 235.92 231.77 225.00 229.00
C 225.00 285.33 225.00 341.67 225.00 398.00 Z"/>
</g>
<g fill="#000000" fill-opacity="1.00" stroke="None">
<path d="
M 204.00 225.00 
C 200.35 223.90 197.93 222.84 194.00 223.00
C 194.00 282.00 194.00 341.00 194.00 400.00
C 197.73 399.21 200.33 399.79 204.00 399.00
C 204.00 341.00 204.00 283.00 204.00 225.00 Z"/>
</g>
<g fill="#000000" fill-opacity="0.99" stroke="None">
<path d="
M 170.00 402.00 
C 170.06 391.49 169.92 380.46 170.00 370.00 C 170.08 359.54 169.84 349.37 170.00 339.00 C 170.16 328.63 169.67 317.20 170.00 307.00 C 170.33 296.80 169.26 285.79 170.00 276.00 C 170.74 266.21 168.40 252.96 170.00 244.00 C 171.60 235.04 169.29 218.81 161.08 226.08 C 152.88 233.36 161.39 246.31 159.00 256.00 C 156.61 265.69 160.06 276.87 159.00 287.00 C 157.94 297.13 159.53 308.72 159.00 319.00 C 158.47 329.28 159.30 339.71 159.00 350.00 C 158.70 360.29 159.29 371.83 159.00 382.00 C 158.71 392.17 156.58 403.73 170.00 402.00 Z"/>
</g>
</svg>