<!DOCTYPE svg PUBLIC "-//W3C//DTD SVG 1.1//EN" "http://www.w3.org/Graphics/SVG/1.1/DTD/svg11.dtd">
<!-- Uploaded to: SVG Repo, www.svgrepo.com, Transformed by: SVG Repo Mixer Tools -->
<svg fill="#000000" version="1.1" id="Capa_1" xmlns="http://www.w3.org/2000/svg" xmlns:xlink="http://www.w3.org/1999/xlink" width="145px" height="145px" viewBox="-16.61 -16.61 130.92 130.92" xml:space="preserve">
<g id="SVGRepo_bgCarrier" stroke-width="0">
<path transform="translate(-16.61, -16.61), scale(4.09125)" d="M16,31.510406423752244C19.381049021411027,31.33617517481362,18.564440440998546,25.26171165692387,21.095079268862353,23.012774989029626C23.189546197073486,21.15145703931573,27.9191853753453,22.818988169308795,28.780460698824825,20.152623407978762C29.642350859782447,17.48435521235676,24.824641832085398,16.066855532504057,24.223385695924662,13.328060017674133C23.497035179597887,10.019444243683338,27.61582205857462,5.739182727592135,25.114709832302367,3.454678176478186C22.739164760762204,1.2848660943556949,19.217124430302405,5.854396954672853,16,5.816856861506638C12.712429026595814,5.778494739274228,9.620372001134411,1.6742571327422349,6.729421445660071,3.2401432854987284C3.9414150747451693,4.750269621539164,4.210410573921484,9.011356412744341,4.248917698312097,12.181841908127684C4.2791131071060615,14.667981995798728,5.7216422641502955,16.771849527786177,6.920227865023753,18.950196803960488C7.882276321393633,20.698654012985713,9.339404411657664,21.94100037469287,10.508561712010621,23.55831637697175C12.443113226232079,26.23441575234122,12.702255564611772,31.680344844644555,16,31.510406423752244" fill="#0001" strokewidth="0"/>
</g>
<g id="SVGRepo_tracerCarrier" stroke-linecap="round" stroke-linejoin="round"/>
<g id="SVGRepo_iconCarrier"> <g> <g> <path d="M64.897,48.707c-0.004-0.004-0.01-0.007-0.014-0.012l-8.581,21.187h-14.91l-8.578-21.187 c-1.428,0.864-2.876,1.951-4.291,3.288l18.305,45.675c0.713,0.023,1.431,0.04,2.158,0.04c0.637,0,1.262-0.012,1.88-0.029 l18.311-45.689C67.772,50.653,66.33,49.572,64.897,48.707z"/> <path d="M81.198,84.229C80.44,69.551,76.307,60.088,71.3,54.216L53.958,97.486c6.96-0.616,12.383-2.588,15.386-5.893 c0,0,6.219-0.315,6.334-0.323C78.917,91.056,81.388,87.902,81.198,84.229z"/> <path d="M16.5,84.226c-0.191,3.677,2.28,6.83,5.517,7.045c0.116,0.008,6.337,0.323,6.337,0.323 c3.078,3.495,8.754,5.289,15.379,5.878L26.401,54.225C21.425,60.068,17.259,69.51,16.5,84.226z"/> <path d="M74.872,44.548c-2.389-0.586-4.92-3.468-6.316-5.277c1.903-1.263,3.001-3.792,3.491-6.646 c0.791-4.63-0.871-6.888-3.799-7.394c-0.194-2.11-0.471-4.13-0.897-6.016l-2.868,1.352l-9.969,4.698 c-1.547,0.729-3.325,0.79-4.918,0.168l-15.652-6.104l-3.373-1.314c-0.599,2.221-0.951,4.65-1.186,7.218 c-2.928,0.506-4.59,2.764-3.798,7.395c0.495,2.893,1.632,5.424,3.535,6.671c-1.4,1.812-3.919,4.667-6.296,5.251 c0,0,2.154,1.937,5.888,1.047c0,0-1.643,4.654-5.888,5.616c0,0,0.943,0.676,2.564,1.117c0,0,4.148-4.241,8.809-6.81 c3.5,5.35,8.538,8.631,14.619,8.631c5.844,0,11.077-3.199,14.656-8.646c4.67,2.565,8.834,6.823,8.834,6.823 c1.622-0.441,2.564-1.117,2.564-1.117c-4.245-0.962-5.889-5.616-5.889-5.616C72.717,46.483,74.872,44.548,74.872,44.548z M63.288,29.594c-0.533,11.168-6.553,19.05-14.471,19.05c-7.458,0-13.029-6.819-14.153-16.33 c-0.272-2.306-0.282-4.302-0.102-6.055c3.758,1.78,8.771,2.872,14.286,2.872c5.537,0,10.551-1.108,14.314-2.9 C63.295,27.26,63.345,28.375,63.288,29.594z"/> <path d="M23.604,25.602c1.219,0,2.207,0.012,2.207-1.207c0-0.85-0.481-3.612-1.185-5.21c0.702-0.37,1.185-1.098,1.185-1.945 c0-0.643-0.28-1.217-0.719-1.62V11.46h22.754c0.535,0,0.968,0.434,0.968,0.968v0.032c0,0.553-0.448,1-1,1h-18.65 c-0.19,0-0.354,0.136-0.39,0.321c-0.036,0.188,0.066,0.374,0.243,0.444l20.979,8.355c1.271,0.496,2.689,0.447,3.923-0.135 l20.206-9.521c0.648-0.308,1.053-0.972,1.024-1.688C75.123,10.521,74.67,9.889,74,9.634L49.607,0.326 c-1.2-0.458-2.532-0.433-3.714,0.069L26.926,8.46h-3.333c-0.829,0-1.5,0.672-1.5,1.5v5.68c-0.426,0.401-0.695,0.969-0.695,1.601 c0,0.849,0.483,1.575,1.185,1.945c-0.704,1.598-1.185,4.36-1.185,5.21C21.397,25.613,22.386,25.602,23.604,25.602z"/> </g> </g> </g>
</svg>