<!DOCTYPE svg PUBLIC "-//W3C//DTD SVG 1.1//EN" "http://www.w3.org/Graphics/SVG/1.1/DTD/svg11.dtd">
<!-- Uploaded to: SVG Repo, www.svgrepo.com, Transformed by: SVG Repo Mixer Tools -->
<svg fill="#000000" version="1.1" id="Capa_1" xmlns="http://www.w3.org/2000/svg" xmlns:xlink="http://www.w3.org/1999/xlink" width="145px" height="145px" viewBox="-16.6 -16.6 130.82 130.82" xml:space="preserve">
<g id="SVGRepo_bgCarrier" stroke-width="0">
<path transform="translate(-16.6, -16.6), scale(4.088125)" d="M16,28.135086233417194C18.083967988816333,28.694302428612865,20.10038570493886,30.470890604134294,22.16764188998222,29.852750493172167C24.16059741665032,29.25682737570361,25.643314847967247,27.135194459933473,26.117472058264084,25.10981275933137C26.61040445228168,23.004232102122323,23.879400892983337,20.82308708755655,24.74544345951319,18.841566832287082C25.752779596798433,16.536764462244673,29.74773953852864,16.741498732708344,30.777851223232886,14.446785248312167C31.658468330628434,12.485091209756819,31.28364131849368,9.43022807385751,29.526889862194658,8.190246496763498C27.386888161903894,6.679752411902619,24.029048654317975,9.37902866464947,21.75538719538438,8.078389118961649C19.83308996034005,6.978746165239912,20.98532932865732,3.002440585412173,18.946506327779158,2.1377776125614147C17.112926031501676,1.3601578833073362,15.540852240192498,4.2666410351742545,13.57916359442164,4.610860156194439C11.522821948806513,4.971688116990781,9.375681609831402,3.487532189014927,7.400474978056305,4.163769235157224C5.401425880787675,4.84816905180602,3.2669042598089915,6.290441073864551,2.715481348295553,8.330179580383824C2.125073252713216,10.514126061342939,4.168569861068874,12.56028077970766,4.5266701399405385,14.79410443910759C4.7896036611131,16.434279426670486,3.6119632313970547,18.34652402449947,4.541841067618218,19.722981519697846C5.5467612392928265,21.210520902288923,8.156391261263556,20.64693103816272,9.372606416797126,21.967331985469414C10.568781478282755,23.265976125154843,9.85634043887209,25.693099475368136,11.148816495907962,26.89593654714821C12.384067076313,28.045516984604465,14.370239634157608,27.697753032639604,16,28.135086233417194" fill="#0001" strokewidth="0"/>
</g>
<g id="SVGRepo_tracerCarrier" stroke-linecap="round" stroke-linejoin="round"/>
<g id="SVGRepo_iconCarrier"> <g> <g> <path d="M83.158,83.242c-0.756-14.645-4.684-24.402-9.584-30.707v17.988h-6.869l3.075,7.172L56.433,97.098 c6.343-0.85,11.291-2.867,14.159-6.023c0,0,6.595-0.338,6.721-0.347C80.753,90.5,83.358,87.148,83.158,83.242z"/> <path d="M30.925,70.525h-6.871V52.539c-4.896,6.299-8.835,16.056-9.587,30.701c-0.201,3.908,2.406,7.26,5.848,7.485 c0.123,0.009,6.729,0.345,6.729,0.345c2.929,3.322,8.058,5.203,14.153,6.01L27.852,77.695L30.925,70.525z"/> <path d="M61.88,67.462h8.564V49.16c-1.631-1.464-3.126-2.65-4.691-3.599c-0.005-0.004-17.069,42.065-17.069,42.065l-16.92-42.144 c-1.618,0.958-3.219,2.174-4.854,3.686v18.293h8.571l-4.249,9.935L45.068,97.52c1.232,0.07,2.485,0.105,3.76,0.105 c1.185,0,2.336-0.034,3.461-0.094L66.13,77.396L61.88,67.462z"/> <path d="M30.325,36.421c3.487,9.023,10.051,14.952,18.49,14.952c8.062,0,15.047-5.706,18.496-14.952 c3.62-0.336,5.518-3.832,6.224-7.954c0.841-4.926-0.927-7.329-4.042-7.867C68.429,9.031,65.104,0,48.814,0 C32.431,0,29.196,9.031,28.136,20.6c-3.115,0.538-4.884,2.94-4.041,7.867C24.808,32.638,26.771,36.111,30.325,36.421z M52.631,17.376c1.024,2.052,3.953,6.063,11.581,7.866c-0.719,11.876-6.973,20.27-15.398,20.27c-7.935,0-13.49-7.307-15.06-17.375 C44.604,27.39,51.555,18.8,52.631,17.376z"/> </g> </g> </g>
</svg>